<svg width="1456" height="983" viewBox="0 0 1456 983" fill="none" xmlns="http://www.w3.org/2000/svg">
<rect width="1456" height="983" fill="white"/>
<circle cx="79" cy="411" r="25" fill="#0FBF00"/>
<circle cx="79" cy="572" r="25" fill="#0FBF00"/>
<circle cx="1311" cy="411" r="25" fill="#0FBF00"/>
<circle cx="1311" cy="572" r="25" fill="#0FBF00"/>
<circle cx="387" cy="284" r="25" fill="#595959"/>
<circle cx="387" cy="365" r="25" fill="#595959"/>
<circle cx="387" cy="122" r="25" fill="#595959"/>
<circle cx="387" cy="203" r="25" fill="#595959"/>
<circle cx="387" cy="610" r="25" fill="#595959"/>
<circle cx="387" cy="695" r="25" fill="#595959"/>
<circle cx="387" cy="776" r="25" fill="#595959"/>
<circle cx="387" cy="861" r="25" fill="#595959"/>
<circle cx="387" cy="452" r="25" fill="#595959"/>
<circle cx="387" cy="533" r="25" fill="#595959"/>
<circle cx="695" cy="284" r="25" fill="#595959"/>
<circle cx="695" cy="365" r="25" fill="#595959"/>
<circle cx="695" cy="122" r="25" fill="#595959"/>
<circle cx="695" cy="203" r="25" fill="#595959"/>
<circle cx="695" cy="610" r="25" fill="#595959"/>
<circle cx="695" cy="695" r="25" fill="#595959"/>
<circle cx="695" cy="776" r="25" fill="#595959"/>
<circle cx="695" cy="861" r="25" fill="#595959"/>
<circle cx="695" cy="452" r="25" fill="#595959"/>
<circle cx="695" cy="533" r="25" fill="#595959"/>
<circle cx="1003" cy="284" r="25" fill="#595959"/>
<circle cx="1003" cy="365" r="25" fill="#595959"/>
<circle cx="1003" cy="122" r="25" fill="#595959"/>
<circle cx="1003" cy="203" r="25" fill="#595959"/>
<circle cx="1003" cy="610" r="25" fill="#595959"/>
<circle cx="1003" cy="695" r="25" fill="#595959"/>
<circle cx="1003" cy="776" r="25" fill="#595959"/>
<circle cx="1003" cy="861" r="25" fill="#595959"/>
<circle cx="1003" cy="452" r="25" fill="#595959"/>
<circle cx="1003" cy="533" r="25" fill="#595959"/>
<line x1="94.6357" y1="405.658" x2="361.636" y2="121.658" stroke="black"/>
<line x1="95.6976" y1="404.602" x2="361.698" y2="202.602" stroke="black"/>
<line x1="95.7887" y1="407.547" x2="361.789" y2="283.547" stroke="black"/>
<line x1="94.9205" y1="407.506" x2="361.92" y2="364.506" stroke="black"/>
<line x1="93.0807" y1="407.507" x2="362.081" y2="451.507" stroke="black"/>
<line x1="93.2107" y1="407.547" x2="362.211" y2="532.547" stroke="black"/>
<line x1="90.2972" y1="408.598" x2="362.297" y2="609.598" stroke="black"/>
<line x1="90.3629" y1="407.656" x2="362.363" y2="694.656" stroke="black"/>
<line x1="90.4021" y1="407.703" x2="362.402" y2="775.703" stroke="black"/>
<line x1="90.4292" y1="405.743" x2="362.429" y2="860.743" stroke="black"/>
<line x1="95.5706" y1="567.744" x2="361.571" y2="121.744" stroke="black"/>
<line x1="95.5959" y1="567.706" x2="361.596" y2="202.706" stroke="black"/>
<line x1="95.6351" y1="567.658" x2="361.635" y2="283.658" stroke="black"/>
<line x1="95.6967" y1="567.603" x2="361.697" y2="364.603" stroke="black"/>
<line x1="92.8049" y1="565.54" x2="361.805" y2="451.54" stroke="black"/>
<line x1="90.9396" y1="565.504" x2="361.94" y2="532.504" stroke="black"/>
<line x1="95.0813" y1="565.507" x2="362.081" y2="609.507" stroke="black"/>
<line x1="93.2162" y1="565.549" x2="362.216" y2="694.549" stroke="black"/>
<line x1="93.3086" y1="564.607" x2="362.309" y2="775.607" stroke="black"/>
<line x1="91.371" y1="560.665" x2="362.371" y2="860.665" stroke="black"/>
<line x1="404.008" y1="117.5" x2="670.008" y2="121.5" stroke="black"/>
<line x1="404.008" y1="117.5" x2="670.008" y2="121.5" stroke="black"/>
<line x1="412.008" y1="198.5" x2="678.008" y2="202.5" stroke="black"/>
<line x1="412.008" y1="283.5" x2="678.008" y2="287.5" stroke="black"/>
<line x1="412.008" y1="364.5" x2="678.008" y2="368.5" stroke="black"/>
<line x1="412.008" y1="447.5" x2="678.008" y2="451.5" stroke="black"/>
<line x1="404.008" y1="532.5" x2="670.008" y2="536.5" stroke="black"/>
<line x1="412.008" y1="609.5" x2="678.008" y2="613.5" stroke="black"/>
<line x1="412.008" y1="694.5" x2="678.008" y2="698.5" stroke="black"/>
<line x1="412.008" y1="779.5" x2="678.008" y2="783.5" stroke="black"/>
<line x1="412.008" y1="856.5" x2="678.008" y2="860.5" stroke="black"/>
<line x1="408.151" y1="119.523" x2="670.151" y2="202.523" stroke="black"/>
<line x1="408.156" y1="197.525" x2="670.156" y2="283.525" stroke="black"/>
<line x1="404.265" y1="117.576" x2="670.265" y2="283.576" stroke="black"/>
<line x1="402.343" y1="114.636" x2="670.343" y2="366.636" stroke="black"/>
<line x1="397.389" y1="112.686" x2="670.389" y2="451.686" stroke="black"/>
<line x1="397.42" y1="112.728" x2="670.42" y2="534.728" stroke="black"/>
<line x1="397.439" y1="106.761" x2="670.439" y2="609.762" stroke="black"/>
<line x1="402.454" y1="115.791" x2="670.454" y2="698.791" stroke="black"/>
<line x1="404.465" y1="115.815" x2="670.465" y2="783.815" stroke="black"/>
<line x1="404.471" y1="115.832" x2="670.471" y2="860.832" stroke="black"/>
<line x1="404.866" y1="195.518" x2="669.866" y2="121.518" stroke="black"/>
<line x1="405.267" y1="197.577" x2="670.267" y2="364.577" stroke="black"/>
<line x1="404.342" y1="194.635" x2="678.342" y2="451.635" stroke="black"/>
<line x1="402.39" y1="197.688" x2="670.39" y2="532.688" stroke="black"/>
<line x1="404.42" y1="199.729" x2="670.42" y2="611.729" stroke="black"/>
<line x1="404.44" y1="202.762" x2="670.44" y2="694.762" stroke="black"/>
<line x1="404.454" y1="199.792" x2="670.454" y2="779.792" stroke="black"/>
<line x1="405.464" y1="202.813" x2="670.464" y2="860.813" stroke="black"/>
<line x1="404.74" y1="282.573" x2="669.74" y2="121.573" stroke="black"/>
<line x1="403.854" y1="283.522" x2="669.854" y2="202.522" stroke="black"/>
<line x1="402.156" y1="280.525" x2="670.156" y2="368.525" stroke="black"/>
<line x1="402.261" y1="285.574" x2="670.261" y2="449.574" stroke="black"/>
<line x1="404.343" y1="285.636" x2="670.343" y2="536.636" stroke="black"/>
<line x1="404.391" y1="280.688" x2="670.391" y2="613.688" stroke="black"/>
<line x1="404.421" y1="282.731" x2="670.421" y2="698.731" stroke="black"/>
<line x1="402.44" y1="283.762" x2="670.44" y2="779.762" stroke="black"/>
<line x1="405.453" y1="287.789" x2="670.453" y2="856.789" stroke="black"/>
<line x1="407.663" y1="360.631" x2="669.663" y2="121.631" stroke="black"/>
<line x1="407.73" y1="368.579" x2="669.73" y2="200.579" stroke="black"/>
<line x1="407.844" y1="368.525" x2="669.844" y2="282.525" stroke="black"/>
<line x1="404.146" y1="368.522" x2="670.146" y2="449.522" stroke="black"/>
<line x1="400.256" y1="370.571" x2="670.256" y2="531.571" stroke="black"/>
<line x1="404.34" y1="364.634" x2="670.34" y2="611.634" stroke="black"/>
<line x1="407.391" y1="367.688" x2="670.391" y2="696.688" stroke="black"/>
<line x1="405.422" y1="364.732" x2="670.422" y2="781.732" stroke="black"/>
<line x1="407.441" y1="368.764" x2="670.441" y2="860.764" stroke="black"/>
<line x1="406.609" y1="450.689" x2="669.609" y2="119.689" stroke="black"/>
<line x1="403.658" y1="452.636" x2="669.658" y2="202.636" stroke="black"/>
<line x1="403.729" y1="452.58" x2="669.729" y2="280.58" stroke="black"/>
<line x1="403.827" y1="458.531" x2="669.827" y2="360.531" stroke="black"/>
<line x1="400.139" y1="456.52" x2="670.139" y2="534.52" stroke="black"/>
<line x1="404.251" y1="455.567" x2="670.251" y2="609.567" stroke="black"/>
<line x1="400.334" y1="452.628" x2="670.334" y2="694.628" stroke="black"/>
<line x1="404.385" y1="453.681" x2="678.385" y2="783.681" stroke="black"/>
<line x1="402.418" y1="452.725" x2="670.418" y2="860.726" stroke="black"/>
<line x1="404.39" y1="528.687" x2="670.39" y2="860.687" stroke="black"/>
<line x1="405.342" y1="527.635" x2="670.342" y2="775.635" stroke="black"/>
<line x1="404.27" y1="527.579" x2="670.27" y2="698.579" stroke="black"/>
<line x1="404.156" y1="528.525" x2="678.156" y2="618.525" stroke="black"/>
<line x1="404.841" y1="536.526" x2="669.841" y2="447.526" stroke="black"/>
<line x1="403.662" y1="536.631" x2="677.662" y2="285.631" stroke="black"/>
<line x1="403.576" y1="543.734" x2="669.576" y2="119.734" stroke="black"/>
<line x1="404.56" y1="610.763" x2="669.56" y2="119.763" stroke="black"/>
<line x1="400.331" y1="618.625" x2="670.331" y2="856.625" stroke="black"/>
<line x1="400.137" y1="617.519" x2="670.137" y2="694.519" stroke="black"/>
<line x1="403.739" y1="610.574" x2="669.739" y2="447.574" stroke="black"/>
<line x1="398.615" y1="609.681" x2="669.615" y2="282.681" stroke="black"/>
<line x1="404.847" y1="617.524" x2="669.847" y2="532.524" stroke="black"/>
<line x1="412.254" y1="697.569" x2="670.254" y2="849.569" stroke="black"/>
<line x1="407.836" y1="700.528" x2="669.836" y2="609.528" stroke="black"/>
<line x1="403.664" y1="693.629" x2="669.664" y2="452.629" stroke="black"/>
<line x1="399.563" y1="701.757" x2="677.563" y2="202.757" stroke="black"/>
<line x1="404.143" y1="778.521" x2="678.143" y2="860.521" stroke="black"/>
<line x1="396.869" y1="772.517" x2="669.869" y2="698.517" stroke="black"/>
<line x1="403.658" y1="778.636" x2="669.658" y2="528.636" stroke="black"/>
<line x1="398.551" y1="773.78" x2="677.551" y2="202.781" stroke="black"/>
<line x1="401.537" y1="775.81" x2="669.537" y2="121.81" stroke="black"/>
<line x1="403.87" y1="857.517" x2="677.87" y2="783.517" stroke="black"/>
<line x1="403.736" y1="862.575" x2="669.736" y2="697.575" stroke="black"/>
<line x1="399.66" y1="862.634" x2="669.66" y2="611.634" stroke="black"/>
<line x1="396.585" y1="865.721" x2="669.585" y2="458.721" stroke="black"/>
<line x1="399.546" y1="863.79" x2="669.546" y2="280.79" stroke="black"/>
<line x1="406.546" y1="855.791" x2="669.546" y2="283.791" stroke="black"/>
<line x1="398.567" y1="852.75" x2="677.567" y2="368.75" stroke="black"/>
<line x1="398.533" y1="849.821" x2="677.533" y2="119.821" stroke="black"/>
<line x1="718.008" y1="125.5" x2="984.008" y2="129.5" stroke="black"/>
<line x1="718.008" y1="125.5" x2="984.008" y2="129.5" stroke="black"/>
<line x1="726.008" y1="206.5" x2="992.008" y2="210.5" stroke="black"/>
<line x1="726.008" y1="291.5" x2="992.008" y2="295.5" stroke="black"/>
<line x1="719.018" y1="366.5" x2="992.018" y2="376.5" stroke="black"/>
<line x1="726.008" y1="455.5" x2="992.008" y2="459.5" stroke="black"/>
<line x1="718.008" y1="540.5" x2="984.008" y2="544.5" stroke="black"/>
<line x1="726.008" y1="617.5" x2="992.008" y2="621.5" stroke="black"/>
<line x1="726.008" y1="702.5" x2="992.008" y2="706.5" stroke="black"/>
<line x1="726.008" y1="787.5" x2="992.008" y2="791.5" stroke="black"/>
<line x1="726.008" y1="864.5" x2="992.008" y2="868.5" stroke="black"/>
<line x1="722.151" y1="127.523" x2="984.151" y2="210.523" stroke="black"/>
<line x1="722.156" y1="205.525" x2="984.156" y2="291.525" stroke="black"/>
<line x1="718.265" y1="125.576" x2="984.265" y2="291.576" stroke="black"/>
<line x1="716.343" y1="122.636" x2="984.343" y2="374.636" stroke="black"/>
<line x1="711.389" y1="120.686" x2="984.389" y2="459.686" stroke="black"/>
<line x1="711.42" y1="120.728" x2="984.42" y2="542.728" stroke="black"/>
<line x1="711.439" y1="114.761" x2="984.439" y2="617.762" stroke="black"/>
<line x1="716.454" y1="123.791" x2="984.454" y2="706.791" stroke="black"/>
<line x1="718.465" y1="123.815" x2="984.465" y2="791.815" stroke="black"/>
<line x1="718.471" y1="123.832" x2="984.471" y2="868.832" stroke="black"/>
<line x1="718.866" y1="203.518" x2="983.866" y2="129.518" stroke="black"/>
<line x1="719.267" y1="205.577" x2="984.267" y2="372.577" stroke="black"/>
<line x1="718.342" y1="202.635" x2="992.342" y2="459.635" stroke="black"/>
<line x1="716.39" y1="205.688" x2="984.39" y2="540.688" stroke="black"/>
<line x1="718.42" y1="207.729" x2="984.42" y2="619.729" stroke="black"/>
<line x1="718.44" y1="210.762" x2="984.44" y2="702.762" stroke="black"/>
<line x1="718.454" y1="207.792" x2="984.454" y2="787.792" stroke="black"/>
<line x1="719.464" y1="210.813" x2="984.464" y2="868.813" stroke="black"/>
<line x1="718.74" y1="290.573" x2="983.74" y2="129.573" stroke="black"/>
<line x1="717.854" y1="291.522" x2="983.854" y2="210.522" stroke="black"/>
<line x1="716.156" y1="288.525" x2="984.156" y2="376.525" stroke="black"/>
<line x1="716.261" y1="293.574" x2="984.261" y2="457.574" stroke="black"/>
<line x1="718.343" y1="293.636" x2="984.343" y2="544.636" stroke="black"/>
<line x1="718.391" y1="288.688" x2="984.391" y2="621.688" stroke="black"/>
<line x1="718.421" y1="290.731" x2="984.421" y2="706.731" stroke="black"/>
<line x1="716.44" y1="291.762" x2="984.44" y2="787.762" stroke="black"/>
<line x1="719.453" y1="295.789" x2="984.453" y2="864.789" stroke="black"/>
<path d="M718 367L983.663 129.631" stroke="black"/>
<line x1="721.73" y1="376.579" x2="983.73" y2="208.579" stroke="black"/>
<line x1="721.844" y1="376.525" x2="983.844" y2="290.525" stroke="black"/>
<line x1="718.146" y1="376.522" x2="984.146" y2="457.522" stroke="black"/>
<line x1="714.256" y1="378.571" x2="984.256" y2="539.571" stroke="black"/>
<line x1="718.34" y1="372.634" x2="984.34" y2="619.634" stroke="black"/>
<line x1="721.391" y1="375.688" x2="984.391" y2="704.688" stroke="black"/>
<line x1="719.422" y1="372.732" x2="984.422" y2="789.732" stroke="black"/>
<line x1="721.441" y1="376.764" x2="984.441" y2="868.764" stroke="black"/>
<line x1="720.609" y1="458.689" x2="983.609" y2="127.689" stroke="black"/>
<line x1="717.658" y1="460.636" x2="983.658" y2="210.636" stroke="black"/>
<line x1="717.729" y1="460.58" x2="983.729" y2="288.58" stroke="black"/>
<line x1="717.827" y1="466.531" x2="983.827" y2="368.531" stroke="black"/>
<line x1="714.139" y1="464.52" x2="984.139" y2="542.52" stroke="black"/>
<line x1="718.251" y1="463.567" x2="984.251" y2="617.567" stroke="black"/>
<line x1="714.334" y1="460.628" x2="984.334" y2="702.628" stroke="black"/>
<line x1="718.385" y1="461.681" x2="992.385" y2="791.681" stroke="black"/>
<line x1="716.418" y1="460.725" x2="984.418" y2="868.726" stroke="black"/>
<line x1="718.39" y1="536.687" x2="984.39" y2="868.687" stroke="black"/>
<line x1="719.342" y1="535.635" x2="984.342" y2="783.635" stroke="black"/>
<line x1="718.27" y1="535.579" x2="984.27" y2="706.579" stroke="black"/>
<line x1="718.156" y1="536.525" x2="992.156" y2="626.525" stroke="black"/>
<line x1="718.841" y1="544.526" x2="983.841" y2="455.526" stroke="black"/>
<line x1="717.662" y1="544.631" x2="991.662" y2="293.631" stroke="black"/>
<line x1="715.581" y1="540.728" x2="983.581" y2="127.728" stroke="black"/>
<line x1="718.56" y1="618.763" x2="983.56" y2="127.763" stroke="black"/>
<line x1="714.331" y1="626.625" x2="984.331" y2="864.625" stroke="black"/>
<line x1="714.137" y1="625.519" x2="984.137" y2="702.519" stroke="black"/>
<line x1="717.739" y1="618.574" x2="983.739" y2="455.574" stroke="black"/>
<line x1="712.615" y1="617.681" x2="983.615" y2="290.681" stroke="black"/>
<line x1="718.847" y1="625.524" x2="983.847" y2="540.524" stroke="black"/>
<line x1="726.254" y1="705.569" x2="984.254" y2="857.569" stroke="black"/>
<line x1="721.836" y1="708.528" x2="983.836" y2="617.528" stroke="black"/>
<line x1="717.664" y1="701.629" x2="983.664" y2="460.629" stroke="black"/>
<line x1="713.563" y1="709.757" x2="991.563" y2="210.757" stroke="black"/>
<line x1="718.143" y1="786.521" x2="992.143" y2="868.521" stroke="black"/>
<line x1="710.869" y1="780.517" x2="983.869" y2="706.517" stroke="black"/>
<line x1="717.658" y1="786.636" x2="983.658" y2="536.636" stroke="black"/>
<line x1="712.551" y1="781.78" x2="991.551" y2="210.781" stroke="black"/>
<line x1="715.537" y1="783.81" x2="983.537" y2="129.81" stroke="black"/>
<line x1="717.87" y1="865.517" x2="991.87" y2="791.517" stroke="black"/>
<line x1="717.736" y1="870.575" x2="983.736" y2="705.575" stroke="black"/>
<line x1="713.66" y1="870.634" x2="983.66" y2="619.634" stroke="black"/>
<line x1="710.585" y1="873.721" x2="983.585" y2="466.721" stroke="black"/>
<line x1="713.546" y1="871.79" x2="983.546" y2="288.79" stroke="black"/>
<line x1="720.546" y1="863.791" x2="983.546" y2="291.791" stroke="black"/>
<line x1="712.567" y1="860.75" x2="991.567" y2="376.75" stroke="black"/>
<line x1="712.533" y1="857.821" x2="991.533" y2="127.821" stroke="black"/>
<line x1="1018.37" y1="124.659" x2="1286.37" y2="411.659" stroke="black"/>
<line x1="1021.31" y1="198.61" x2="1286.31" y2="411.61" stroke="black"/>
<line x1="1021.43" y1="123.745" x2="1286.43" y2="569.745" stroke="black"/>
<line x1="1022.41" y1="203.707" x2="1286.41" y2="569.708" stroke="black"/>
<line x1="1022.22" y1="283.549" x2="1286.22" y2="410.549" stroke="black"/>
<line x1="1018.37" y1="282.659" x2="1286.37" y2="569.659" stroke="black"/>
<line x1="1025.09" y1="363.508" x2="1286.09" y2="410.508" stroke="black"/>
<line x1="1023.31" y1="364.606" x2="1286.31" y2="569.606" stroke="black"/>
<line x1="1020.93" y1="449.505" x2="1285.93" y2="410.505" stroke="black"/>
<line x1="1020.21" y1="449.544" x2="1286.21" y2="569.544" stroke="black"/>
<line x1="1020.8" y1="529.544" x2="1285.8" y2="410.544" stroke="black"/>
<line x1="1021.07" y1="529.506" x2="1286.07" y2="569.506" stroke="black"/>
<line x1="1020.7" y1="608.6" x2="1285.7" y2="409.6" stroke="black"/>
<line x1="1020.93" y1="611.506" x2="1285.93" y2="571.506" stroke="black"/>
<line x1="1020.63" y1="695.66" x2="1285.63" y2="410.66" stroke="black"/>
<line x1="1020.79" y1="696.548" x2="1285.79" y2="571.548" stroke="black"/>
<line x1="1021.6" y1="771.705" x2="1285.6" y2="410.705" stroke="black"/>
<line x1="1020.7" y1="772.603" x2="1285.7" y2="569.603" stroke="black"/>
<line x1="1022.57" y1="858.746" x2="1285.57" y2="411.746" stroke="black"/>
<line x1="1021.63" y1="860.663" x2="1285.63" y2="571.663" stroke="black"/>
</svg>
